<svg width="60" height="23" viewBox="0 0 60 23" fill="none" xmlns="http://www.w3.org/2000/svg">
<path d="M53.9297 19.8472C53.4515 19.8472 52.9986 19.7396 52.5938 19.5498V21.0035C52.5938 21.75 53.2489 22.2417 53.8861 22.2417C54.5234 22.2417 55.1785 21.75 55.1785 21.0035V19.5895C54.7959 19.755 54.3737 19.8472 53.9292 19.8472H53.9297Z" fill="#00E7ED"/>
<path d="M48.7468 19.6255C47.3316 19.9908 46.1056 20.0265 45.0461 20.0265C44.1457 20.0265 42.8246 19.9859 41.6422 19.7936C40.9098 19.6741 40.3167 19.51 39.832 19.2939V21.0738C39.832 22.3119 43.6006 22.4215 45.0025 22.4215C46.222 22.4215 47.4421 22.367 48.8801 21.8936C49.4079 21.7112 49.6264 21.2929 49.6264 20.8557C49.6264 20.3085 49.2795 19.7415 48.7463 19.626L48.7468 19.6255Z" fill="#00E7ED"/>
<path d="M36.7442 19.8453C36.2566 19.8453 35.8071 19.7491 35.4082 19.5781V21.02C35.4082 21.9121 36.0455 22.2398 36.7006 22.2398C37.3557 22.2398 37.9751 21.9121 37.9751 21.02V19.6193C37.6035 19.7655 37.1897 19.8458 36.7442 19.8458V19.8453Z" fill="#00E7ED"/>
<path d="M28.0606 19.8448C27.573 19.8448 27.123 19.7491 26.7246 19.5781V21.0195C26.7246 21.9116 27.3797 22.2393 28.017 22.2393C28.6542 22.2393 29.3094 21.9116 29.3094 21.0195V19.6168C28.9327 19.7645 28.512 19.8448 28.0606 19.8448Z" fill="#00E7ED"/>
<path d="M24.8803 18.0528C24.0161 18.8894 22.9011 19.4683 21.5948 19.7737C20.9967 20.3655 20.1563 20.6009 19.2603 20.6009C18.3644 20.6009 17.4823 20.3585 16.8803 19.7454C15.6241 19.4332 14.5512 18.8632 13.7133 18.0543C13.6241 17.968 13.5388 17.8783 13.4551 17.7871C13.6736 21.1005 15.7048 22.9978 19.2603 22.9978C22.8159 22.9978 24.7876 21.1397 25.0403 17.8882C24.9873 17.9437 24.9348 17.9992 24.8798 18.0528H24.8803Z" fill="#00E7ED"/>
<path d="M11.2032 17.95C10.1551 18.8868 8.81518 19.4835 7.14471 19.7566C6.50547 20.0481 5.70715 20.1769 4.75175 20.1769C3.65957 20.1769 3.00397 20.0129 2.58524 19.9038V19.8037C2.2344 19.7636 1.87216 19.7115 1.51983 19.6426C0.921707 19.5256 0.421706 19.3765 0 19.1901V20.9417C0 22.107 3.36819 22.3256 4.84243 22.3256C8.72896 22.3256 11.0922 20.912 11.6497 17.5039C11.5075 17.6585 11.3608 17.8092 11.2032 17.95Z" fill="#00E7ED"/>
<path d="M1.5778 3.61822C1.91279 3.55428 2.25422 3.50472 2.58573 3.46606V2.44007C3.25918 2.23983 3.87811 2.13029 4.86126 2.13029C6.49159 2.13029 7.836 2.46683 8.53273 3.8135C9.6477 4.15798 10.5823 4.68733 11.3504 5.41048C11.4728 5.52596 11.5882 5.6474 11.7007 5.7718C11.7146 5.71282 11.7319 5.65582 11.7488 5.59882C11.4743 1.80762 9.2805 0 4.91577 0C3.47771 0 0 0.218579 0 1.38384V4.08214C0.434094 3.89082 0.952925 3.73767 1.57731 3.61872L1.5778 3.61822Z" fill="#00E7ED"/>
<path d="M14.7279 3.45526C15.1977 3.45526 15.6323 3.54349 16.0203 3.70309V1.3443C16.0203 0.579522 15.492 0.124023 14.7279 0.124023C13.9638 0.124023 13.4355 0.579522 13.4355 1.3443V3.71151C13.825 3.54646 14.2611 3.45526 14.7279 3.45526Z" fill="#00E7ED"/>
<path d="M23.7767 3.45526C24.2435 3.45526 24.6796 3.54646 25.0691 3.71151V1.3443C25.0691 0.579522 24.523 0.124023 23.7767 0.124023C23.0305 0.124023 22.4844 0.579522 22.4844 1.3443V3.713C22.8744 3.54795 23.3099 3.45526 23.7767 3.45526Z" fill="#00E7ED"/>
<path d="M26.7714 5.64341C27.5653 4.74381 28.5945 4.09006 29.822 3.71931C30.3775 2.71712 31.3235 2.32853 32.3502 2.32853C33.377 2.32853 34.3319 2.71761 34.8924 3.72229C36.1337 4.09947 37.1689 4.76909 37.9652 5.68802C37.8156 2.15059 35.8636 0.0341797 32.3502 0.0341797C28.8368 0.0341797 26.9359 2.09657 26.7422 5.55221C26.7516 5.58294 26.763 5.61268 26.7719 5.64391L26.7714 5.64341Z" fill="#00E7ED"/>
<path d="M41.1244 3.45526C41.5942 3.45526 42.0288 3.5415 42.4168 3.69714V1.27145C42.4168 0.506664 41.834 0.124023 41.1244 0.124023C40.3781 0.124023 39.832 0.506664 39.832 1.27145V3.69714C40.22 3.5415 40.6551 3.45526 41.1244 3.45526Z" fill="#00E7ED"/>
<path d="M58.421 3.45526C58.8556 3.45526 59.2634 3.53457 59.6321 3.67831C59.6856 3.28476 59.7139 2.8704 59.7139 2.43671V1.3443C59.7139 0.615705 59.1678 0.124023 58.4215 0.124023C57.6752 0.124023 57.1291 0.615705 57.1291 1.3443V2.45505C57.1291 2.95664 57.0766 3.39628 56.9805 3.7809C57.4071 3.57323 57.8942 3.45526 58.422 3.45526H58.421Z" fill="#00E7ED"/>
<path d="M49.3724 3.45526C49.8997 3.45526 50.3868 3.57273 50.8135 3.7809C50.7174 3.39628 50.6648 2.95664 50.6648 2.45505V1.3443C50.6648 0.615705 50.1187 0.124023 49.3724 0.124023C48.6262 0.124023 48.0801 0.615705 48.0801 1.3443V2.43671C48.0801 2.87089 48.1078 3.28476 48.1609 3.6788C48.53 3.53506 48.9379 3.45526 49.3729 3.45526H49.3724Z" fill="#00E7ED"/>
<path d="M0 6.53326C0 5.36799 3.47721 5.14941 4.91577 5.14941C9.59467 5.14941 11.7795 7.22518 11.7795 11.5953C11.7795 16.2385 9.32163 18.1145 4.84293 18.1145C3.36819 18.1145 0.000496025 17.896 0.000496025 16.7307V6.53326H0ZM2.58524 15.6928C3.00397 15.8023 3.65908 15.9659 4.75175 15.9659C7.59169 15.9659 9.04809 14.8368 9.04809 11.632C9.04809 8.0083 7.26414 7.2797 4.86076 7.2797C3.87761 7.2797 3.25868 7.38924 2.58524 7.58948V15.6928Z" fill="white"/>
<path d="M22.4841 6.50153C22.4841 5.73675 23.0302 5.28125 23.7765 5.28125C24.5228 5.28125 25.0689 5.73675 25.0689 6.50153V12.6381C25.0689 16.1706 23.0119 18.2102 19.2611 18.2102C15.5104 18.2102 13.4355 16.1706 13.4355 12.6381V6.50153C13.4355 5.73675 13.9816 5.28125 14.7279 5.28125C15.4742 5.28125 16.0203 5.73675 16.0203 6.50153V12.6381C16.0203 15.0965 17.5312 15.9158 19.2606 15.9158C20.9901 15.9158 22.4831 15.0965 22.4831 12.6381V6.50153H22.4841Z" fill="white"/>
<path d="M35.4085 14.1874H29.3094V16.8094C29.3094 17.7015 28.6542 18.0291 28.017 18.0291C27.3797 18.0291 26.7246 17.7015 26.7246 16.8094V11.2918C26.7246 7.48625 28.6909 5.19141 32.35 5.19141C36.0091 5.19141 37.9754 7.48575 37.9754 11.2918V16.8094C37.9754 17.7015 37.3381 18.0291 36.7008 18.0291C36.0636 18.0291 35.4085 17.7015 35.4085 16.8094V14.1874ZM29.3098 11.9659H35.409V11.274C35.409 8.45127 33.9709 7.48625 32.3505 7.48625C30.7301 7.48625 29.3103 8.45127 29.3103 11.274V11.9659H29.3098Z" fill="white"/>
<path d="M39.832 6.42867C39.832 5.66389 40.3781 5.28125 41.1244 5.28125C41.8707 5.28125 42.4168 5.66389 42.4168 6.42867V15.4603C43.1452 15.6973 44.0005 15.7885 45.002 15.7885C45.9485 15.7885 47.5144 15.6244 48.2245 15.4425C49.0436 15.1877 49.6264 15.9342 49.6264 16.6444C49.6264 17.0816 49.4079 17.5004 48.8801 17.6823C47.4421 18.1557 46.222 18.2102 45.0025 18.2102C43.6006 18.2102 39.832 18.1006 39.832 16.8625V6.42867Z" fill="white"/>
<path d="M52.593 13.5665C49.6619 13.1115 48.0781 10.9262 48.0781 7.59394V6.50153C48.0781 5.77293 48.6242 5.28125 49.3705 5.28125C50.1168 5.28125 50.6629 5.77293 50.6629 6.50153V7.61227C50.6629 10.3071 52.1738 11.2359 53.8854 11.2359C55.597 11.2359 57.1257 10.3071 57.1257 7.61227V6.50153C57.1257 5.77293 57.6718 5.28125 58.4181 5.28125C59.1644 5.28125 59.7105 5.77293 59.7105 6.50153V7.59394C59.7105 10.9262 58.1084 13.1115 55.1773 13.5665V16.7897C55.1773 17.5361 54.54 18.0278 53.8849 18.0278C53.2298 18.0278 52.5925 17.5361 52.5925 16.7897V13.5665H52.593Z" fill="white"/>
</svg>
